<svg xmlns="http://www.w3.org/2000/svg" viewBox="0 0 548 96" role="img" aria-labelledby="title desc">
  <title id="title">JobResumeMatch logo</title>
  <desc id="desc">JobResumeMatch wordmark with blue resume check icon.</desc>
  <defs>
    <linearGradient id="bg" x1="12" x2="84" y1="8" y2="90" gradientUnits="userSpaceOnUse">
      <stop offset="0" stop-color="#1557ff" />
      <stop offset="1" stop-color="#2563eb" />
    </linearGradient>
  </defs>
  <rect width="84" height="84" x="6" y="6" rx="21" fill="url(#bg)" />
  <path
    fill="#ffffff"
    d="M61.7 20.7h15.8v42c0 18.4-13.1 30.4-32.4 30.4-18.3 0-30.6-11.3-30.6-28.6V54.4h15.8V64c0 8.6 5.9 14.3 14.9 14.3 10 0 16.6-6.2 16.6-16.2V20.7Z"
  />
  <rect width="26.3" height="4.5" x="22.3" y="22.3" rx="2.2" fill="#ffffff" />
  <rect width="26.3" height="4.5" x="22.3" y="33.6" rx="2.2" fill="#ffffff" opacity=".95" />
  <rect width="23.3" height="4.5" x="22.3" y="44.9" rx="2.2" fill="#ffffff" opacity=".9" />
  <path
    d="m36 58.9 8.2 7.5 10.5-12"
    fill="none"
    stroke="#ffffff"
    stroke-linecap="round"
    stroke-linejoin="round"
    stroke-width="5.4"
  />
  <text
    x="112"
    y="62"
    fill="#0f172a"
    font-family="Inter, ui-sans-serif, system-ui, -apple-system, BlinkMacSystemFont, 'Segoe UI', sans-serif"
    font-size="39"
    font-weight="850"
    letter-spacing="0"
  >
    JobResumeMatch
  </text>
</svg>
